<svg width="160" height="161" viewBox="0 0 160 161" fill="none" xmlns="http://www.w3.org/2000/svg">
<path d="M41.6053 48.499C41.6053 42.17 43.4824 35.9832 46.9994 30.7208C50.5163 25.4584 55.5151 21.3569 61.3635 18.9349C67.2119 16.5129 73.6474 15.8792 79.8561 17.1139C86.0648 18.3486 91.7678 21.3963 96.244 25.8716C100.72 30.3469 103.769 36.0488 105.004 42.2561C106.239 48.4635 105.605 54.8977 103.182 60.7449C100.76 66.5921 96.6573 71.5899 91.3938 75.1061C86.1304 78.6223 79.9422 80.499 73.6119 80.499C65.1232 80.499 56.9822 77.1276 50.9798 71.1264C44.9774 65.1253 41.6053 56.986 41.6053 48.499ZM73.6119 129.203C73.6262 125.814 74.9844 122.568 77.3887 120.179L102.994 94.579C99.6701 93.7182 96.2494 93.288 92.8159 93.299H54.4079C44.2215 93.299 34.4523 97.3447 27.2494 104.546C20.0465 111.748 16 121.515 16 131.699C16 135.094 17.3488 138.35 19.7498 140.75C22.1508 143.15 25.4072 144.499 28.8026 144.499H67.2106C68.9083 144.499 70.5365 143.825 71.737 142.625C72.9375 141.424 73.6119 139.796 73.6119 138.099V129.203Z" fill="#606268"/>
<path d="M133.208 82.3539L142.17 91.3139C143.343 92.5102 144 94.1187 144 95.7939C144 97.4691 143.343 99.0776 142.17 100.274L99.8573 142.642C98.6306 143.811 97.0072 144.474 95.3123 144.498H86.4145C84.7168 144.498 83.0886 143.824 81.8881 142.623C80.6876 141.423 80.0132 139.795 80.0132 138.098V129.202C80.0368 127.507 80.6998 125.884 81.8696 124.658L124.246 82.3539C125.443 81.1812 127.052 80.5244 128.727 80.5244C130.403 80.5244 132.012 81.1812 133.208 82.3539Z" fill="#606268"/>
</svg>
