<svg width="158" height="158" viewBox="0 0 158 158" fill="none" xmlns="http://www.w3.org/2000/svg">
<path d="M108.362 44.6055H54.473V66.161H108.362V44.6055Z" stroke="#DBE3F5" stroke-width="13.7173" stroke-miterlimit="10"/>
<path d="M129.861 141.542H43.6948C41.5786 141.508 39.5192 140.852 37.7736 139.654C36.0281 138.457 34.6737 136.773 33.8793 134.811C33.0849 132.849 32.8858 130.697 33.3067 128.623C33.7277 126.548 34.7501 124.644 36.2463 123.147C37.2427 122.141 38.4295 121.343 39.7374 120.801C41.0453 120.258 42.4482 119.982 43.8641 119.987H129.861" stroke="#DBE3F5" stroke-width="13.7173" stroke-miterlimit="10"/>
<path d="M124.5 119.987V141.542" stroke="#DBE3F5" stroke-width="13.7173" stroke-miterlimit="10"/>
<path d="M128.845 23.0425V119.529H43.5817C40.7532 119.529 38.0406 120.659 36.0405 122.671C34.0405 124.682 32.9169 127.411 32.9169 130.256V33.7694C32.9315 30.929 34.0599 28.2091 36.0567 26.2006C38.0536 24.1921 40.7577 23.0572 43.5817 23.0425H128.845Z" stroke="#DBE3F5" stroke-width="13.7173" stroke-miterlimit="10"/>
</svg>
