<svg width="22" height="22" viewBox="0 0 22 22" fill="none" xmlns="http://www.w3.org/2000/svg">
<path d="M15.0883 6.21094H7.58484V9.21234H15.0883V6.21094Z" stroke="#666666" stroke-width="1.91" stroke-miterlimit="10"/>
<path d="M18.0818 19.7084H6.08409C5.78942 19.7037 5.50267 19.6122 5.25962 19.4456C5.01657 19.2789 4.82798 19.0443 4.71737 18.7712C4.60676 18.498 4.57903 18.1983 4.63764 17.9095C4.69626 17.6207 4.83861 17.3555 5.04696 17.147C5.1857 17.007 5.35094 16.8959 5.53306 16.8204C5.71517 16.7448 5.9105 16.7063 6.10766 16.707H18.0818" stroke="#666666" stroke-width="1.91" stroke-miterlimit="10"/>
<path d="M17.3354 16.707V19.7084" stroke="#666666" stroke-width="1.91" stroke-miterlimit="10"/>
<path d="M17.9404 3.2085V16.6433H6.06835C5.67451 16.6433 5.2968 16.8007 5.01831 17.0808C4.73983 17.3609 4.58337 17.7408 4.58337 18.1369V4.70212C4.58542 4.30662 4.74253 3.9279 5.02057 3.64824C5.29862 3.36857 5.67514 3.21055 6.06835 3.2085H17.9404Z" stroke="#666666" stroke-width="1.91" stroke-miterlimit="10"/>
</svg>
