<svg width="22" height="22" viewBox="0 0 22 22" fill="none" xmlns="http://www.w3.org/2000/svg">
<path d="M3.4375 9.62509C3.25516 9.62509 3.0803 9.55266 2.95136 9.42373C2.82243 9.29479 2.75 9.11993 2.75 8.93759V3.43896C2.75 3.25663 2.82243 3.08176 2.95136 2.95283C3.0803 2.8239 3.25516 2.75146 3.4375 2.75146H8.9375C9.11984 2.75146 9.2947 2.8239 9.42364 2.95283C9.55257 3.08176 9.625 3.25663 9.625 3.43896V8.93759C9.625 9.11993 9.55257 9.29479 9.42364 9.42373C9.2947 9.55266 9.11984 9.62509 8.9375 9.62509H3.4375ZM13.0625 9.62509C12.8802 9.62509 12.7053 9.55266 12.5764 9.42373C12.4474 9.29479 12.375 9.11993 12.375 8.93759V3.43896C12.375 3.25663 12.4474 3.08176 12.5764 2.95283C12.7053 2.8239 12.8802 2.75146 13.0625 2.75146H18.5611C18.7435 2.75146 18.9183 2.8239 19.0473 2.95283C19.1762 3.08176 19.2486 3.25663 19.2486 3.43896V8.93759C19.2486 9.11993 19.1762 9.29479 19.0473 9.42373C18.9183 9.55266 18.7435 9.62509 18.5611 9.62509H13.0625ZM3.4375 19.2501C3.25516 19.2501 3.0803 19.1777 2.95136 19.0487C2.82243 18.9198 2.75 18.7449 2.75 18.5626V13.0626C2.75 12.8803 2.82243 12.7054 2.95136 12.5765C3.0803 12.4475 3.25516 12.3751 3.4375 12.3751H8.9375C9.11984 12.3751 9.2947 12.4475 9.42364 12.5765C9.55257 12.7054 9.625 12.8803 9.625 13.0626V18.5626C9.625 18.7449 9.55257 18.9198 9.42364 19.0487C9.2947 19.1777 9.11984 19.2501 8.9375 19.2501H3.4375ZM13.0625 19.2501C12.8802 19.2501 12.7053 19.1777 12.5764 19.0487C12.4474 18.9198 12.375 18.7449 12.375 18.5626V13.0626C12.375 12.8803 12.4474 12.7054 12.5764 12.5765C12.7053 12.4475 12.8802 12.3751 13.0625 12.3751H18.5611C18.7435 12.3751 18.9183 12.4475 19.0473 12.5765C19.1762 12.7054 19.2486 12.8803 19.2486 13.0626V18.5626C19.2486 18.7449 19.1762 18.9198 19.0473 19.0487C18.9183 19.1777 18.7435 19.2501 18.5611 19.2501H13.0625Z" fill="#666666"/>
</svg>
