<svg width="161" height="148" viewBox="0 0 161 148" fill="none" xmlns="http://www.w3.org/2000/svg">
<path fill-rule="evenodd" clip-rule="evenodd" d="M0 6.91681V128.887C0 133.738 1.75472 138.391 4.87756 141.824C8.00165 145.254 12.2372 147.182 16.6551 147.182H155.448C158.512 147.182 160.999 144.45 160.999 141.083C160.999 137.717 158.512 134.985 155.448 134.985H16.6551C15.1829 134.985 13.7714 134.341 12.7293 133.198C11.6883 132.054 11.1034 130.502 11.1034 128.887V6.91684C11.1034 3.55041 8.61503 0.818359 5.5517 0.818359C2.4871 0.818359 0 3.55038 0 6.91681Z" fill="#DBE3F5"/>
<path fill-rule="evenodd" clip-rule="evenodd" d="M124.829 39.7201L111.202 24.6588C109.807 23.117 109.39 20.7976 110.143 18.784C110.899 16.7667 112.678 15.4546 114.652 15.4546H139.046C147.129 15.4546 153.682 22.6969 153.682 31.6316V58.5932C153.682 60.7742 152.494 62.7397 150.67 63.5763C148.848 64.4092 146.749 63.9482 145.354 62.4064L131.728 47.3451L98.5856 83.976C96.681 86.0811 93.5926 86.0811 91.6868 83.976L82.9388 74.3071L44.9182 116.33C43.0157 118.435 39.9218 118.435 38.0194 116.33C36.1147 114.227 36.1147 110.808 38.0194 108.705L79.4886 62.8704C81.3932 60.7653 84.4816 60.7653 86.3874 62.8704L95.1354 72.5393L124.829 39.7201Z" fill="#DBE3F5"/>
</svg>
