<svg width="22" height="22" viewBox="0 0 22 22" fill="none" xmlns="http://www.w3.org/2000/svg">
<path d="M1.85075 7.88991C1.96572 6.96627 2.41805 6.11772 3.12077 5.50738C3.8235 4.89705 4.72702 4.568 5.65766 4.5835H9.16666L14.6667 1.8335V14.6668L9.16666 11.9168V19.2502C9.16666 19.4933 9.07009 19.7264 8.89818 19.8983C8.72627 20.0703 8.49311 20.1668 8.25 20.1668H6.41666C6.17355 20.1668 5.94039 20.0703 5.76848 19.8983C5.59658 19.7264 5.5 19.4933 5.5 19.2502V11.9168C4.98808 11.9169 4.48182 11.8097 4.01382 11.6023C3.54581 11.3948 3.12643 11.0917 2.78267 10.7123C2.43892 10.333 2.1784 9.8859 2.0179 9.3998C1.85739 8.91369 1.80045 8.39936 1.85075 7.88991ZM16.5 4.5835C16.2569 4.5835 16.0237 4.68007 15.8518 4.85198C15.6799 5.02389 15.5833 5.25705 15.5833 5.50016C15.5833 5.74328 15.6799 5.97644 15.8518 6.14834C16.0237 6.32025 16.2569 6.41683 16.5 6.41683C16.9862 6.41683 17.4525 6.60998 17.7964 6.9538C18.1402 7.29762 18.3333 7.76393 18.3333 8.25016C18.3333 8.73639 18.1402 9.20271 17.7964 9.54652C17.4525 9.89034 16.9862 10.0835 16.5 10.0835C16.2569 10.0835 16.0237 10.1801 15.8518 10.352C15.6799 10.5239 15.5833 10.757 15.5833 11.0002C15.5833 11.2433 15.6799 11.4764 15.8518 11.6483C16.0237 11.8203 16.2569 11.9168 16.5 11.9168C17.4725 11.9168 18.4051 11.5305 19.0927 10.8429C19.7804 10.1553 20.1667 9.22262 20.1667 8.25016C20.1667 7.2777 19.7804 6.34507 19.0927 5.65744C18.4051 4.9698 17.4725 4.5835 16.5 4.5835Z" fill="#666666"/>
</svg>
