<svg width="22" height="22" viewBox="0 0 22 22" fill="none" xmlns="http://www.w3.org/2000/svg">
<path d="M5.75249 18.0768C5.75249 17.0559 4.89589 16.1997 3.87628 16.1997C2.85666 16.1997 2 17.0559 2 18.0768C2 19.0977 2.85666 19.9539 3.87628 19.9539C4.89589 19.9539 5.75249 19.0977 5.75249 18.0768Z" fill="#666666"/>
<path d="M5.75249 11.4772C5.75249 10.4562 4.89589 9.6001 3.87628 9.6001C2.85666 9.6001 2 10.4562 2 11.4772C2 12.4981 2.85666 13.3542 3.87628 13.3542C4.89589 13.3542 5.75249 12.4981 5.75249 11.4772Z" fill="#666666"/>
<path d="M5.75249 4.87703C5.75249 3.85608 4.89589 3 3.87628 3C2.85666 3 2 3.85608 2 4.87703C2 5.89798 2.85666 6.75412 3.87628 6.75412C4.89589 6.75412 5.75249 5.89798 5.75249 4.87703Z" fill="#666666"/>
<path d="M8.45827 3.45605C8.27989 3.45606 8.10326 3.4928 7.93846 3.5642C7.77366 3.6356 7.62392 3.74025 7.49779 3.87217C7.37166 4.00409 7.27161 4.1607 7.20335 4.33307C7.1351 4.50543 7.09997 4.69017 7.09998 4.87673C7.09998 5.2535 7.24308 5.61483 7.49781 5.88125C7.75254 6.14766 8.09803 6.29733 8.45827 6.29734H18.6416C18.82 6.29734 18.9966 6.26061 19.1614 6.18922C19.3262 6.11783 19.476 6.01319 19.6021 5.88127C19.7283 5.74936 19.8283 5.59275 19.8966 5.42039C19.9648 5.24803 20 5.06329 20 4.87673C20 4.69016 19.9649 4.50542 19.8966 4.33305C19.8283 4.16068 19.7283 4.00407 19.6021 3.87214C19.476 3.74022 19.3263 3.63557 19.1615 3.56418C18.9966 3.49279 18.82 3.45605 18.6416 3.45605H8.45827Z" fill="#666666"/>
<path d="M8.45827 10.0562C8.09803 10.0562 7.75254 10.2058 7.49781 10.4722C7.24308 10.7387 7.09998 11.1 7.09998 11.4768C7.09998 11.8535 7.24308 12.2149 7.49781 12.4813C7.75254 12.7477 8.09803 12.8974 8.45827 12.8974H18.6416C18.82 12.8974 18.9966 12.8606 19.1614 12.7892C19.3262 12.7179 19.476 12.6132 19.6021 12.4813C19.7283 12.3494 19.8283 12.1928 19.8966 12.0204C19.9648 11.8481 20 11.6633 20 11.4768C20 11.2902 19.9648 11.1055 19.8966 10.9331C19.8283 10.7607 19.7283 10.6041 19.6021 10.4722C19.476 10.3403 19.3262 10.2357 19.1614 10.1643C18.9966 10.0929 18.82 10.0561 18.6416 10.0562H8.45827Z" fill="#666666"/>
<path d="M8.45827 16.6563C8.09803 16.6563 7.75254 16.8059 7.49781 17.0723C7.24308 17.3388 7.09998 17.7001 7.09998 18.0769C7.09998 18.4536 7.24308 18.815 7.49781 19.0814C7.75254 19.3478 8.09803 19.4975 8.45827 19.4975H18.6416C18.82 19.4975 18.9966 19.4607 19.1614 19.3893C19.3262 19.318 19.476 19.2133 19.6021 19.0814C19.7283 18.9495 19.8283 18.7929 19.8966 18.6205C19.9648 18.4482 20 18.2634 20 18.0769C20 17.8903 19.9648 17.7056 19.8966 17.5332C19.8283 17.3608 19.7283 17.2042 19.6021 17.0723C19.476 16.9404 19.3262 16.8358 19.1614 16.7644C18.9966 16.693 18.82 16.6562 18.6416 16.6563H8.45827Z" fill="#666666"/>
</svg>
