<svg width="24" height="24" viewBox="0 0 24 24" fill="none" xmlns="http://www.w3.org/2000/svg">
<g id="noun-mail-5600864 3">
<path id="Vector" fill-rule="evenodd" clip-rule="evenodd" d="M21.099 6.33462L13.2896 13.5849C12.5516 14.27 11.4746 14.27 10.7365 13.5849L2.92711 6.33462C2.8146 6.60943 2.75244 6.91427 2.75244 7.23528V16.7394C2.75244 17.9508 3.64084 18.9327 4.73682 18.9327H19.289C20.3849 18.9327 21.2733 17.9508 21.2733 16.7394V7.23528C21.2733 6.91428 21.2112 6.60947 21.0987 6.33462H21.099ZM3.84435 5.27601L11.588 12.4653C11.8341 12.6934 12.1926 12.6934 12.4387 12.4653L20.1824 5.27601C19.9138 5.12604 19.6102 5.04199 19.2894 5.04199H4.73724C4.41641 5.04199 4.11282 5.12603 3.84427 5.27601H3.84435Z" fill="#FF8CB9"/>
</g>
</svg>
