<svg width="24" height="24" viewBox="0 0 24 24" fill="none" xmlns="http://www.w3.org/2000/svg">
<g id="messenger" clip-path="url(#clip0_143_588)">
<g id="Group">
<path id="Vector" d="M12.335 4C17.0309 4 20.67 7.43985 20.67 12.085C20.67 16.73 17.0309 20.1699 12.335 20.1699C11.52 20.172 10.7083 20.0643 9.92202 19.8498C9.77432 19.8092 9.61715 19.8207 9.47693 19.8823L7.82326 20.6125C7.72335 20.6566 7.61412 20.6756 7.50518 20.6676C7.39623 20.6597 7.29091 20.6251 7.19847 20.5669C7.10603 20.5087 7.0293 20.4287 6.97504 20.3339C6.92077 20.2391 6.89062 20.1324 6.88724 20.0232L6.8414 18.5396C6.8384 18.4494 6.81704 18.3607 6.77864 18.279C6.74023 18.1973 6.68558 18.1243 6.61802 18.0645C4.99603 16.615 4 14.5163 4 12.085C4 7.43985 7.63989 4 12.335 4ZM7.32983 14.4496C7.09479 14.8222 7.55321 15.2422 7.90411 14.9755L10.5338 12.9801C10.6206 12.9146 10.7264 12.8792 10.8351 12.8792C10.9439 12.8792 11.0496 12.9146 11.1364 12.9801L13.0843 14.4388C13.2225 14.5424 13.3806 14.6163 13.5488 14.6558C13.7169 14.6952 13.8914 14.6995 14.0613 14.6681C14.2311 14.6368 14.3927 14.5706 14.5357 14.4738C14.6787 14.3769 14.8001 14.2515 14.8922 14.1054L17.3402 10.2212C17.5752 9.84784 17.1168 9.42775 16.7659 9.69364L14.1362 11.6907C14.0494 11.7562 13.9436 11.7917 13.8349 11.7917C13.7261 11.7917 13.6204 11.7562 13.5336 11.6907L11.5857 10.2321C11.4475 10.1284 11.2894 10.0545 11.1212 10.0151C10.9531 9.97559 10.7786 9.97138 10.6087 10.0027C10.4389 10.034 10.2773 10.1002 10.1343 10.1971C9.99132 10.2939 9.86993 10.4194 9.77782 10.5655L7.32983 14.4496Z" fill="#FF8CB9"/>
</g>
</g>
<defs>
<clipPath id="clip0_143_588">
<rect width="24" height="24" fill="white"/>
</clipPath>
</defs>
</svg>
