<svg width="160" height="160" viewBox="0 0 160 160" fill="none" xmlns="http://www.w3.org/2000/svg">
<path d="M68.0258 140.186C70.0436 142.351 73.8182 141.168 73.8182 138.232V32.1451C67.6364 26.0725 60.9139 23.4705 53.935 21.9581C41.5683 19.2781 30.5603 19.8599 23.8237 20.7212C16.3608 21.6752 12 28.1937 12 34.6081V114.526C12 123.169 19.3461 129.983 27.8753 129.706C34.9352 129.478 44.734 129.723 53.6101 131.831C60.3787 133.437 64.6837 136.598 68.0258 140.186Z" fill="#606268"/>
<path d="M91.974 140.186C89.9563 142.351 86.1816 141.168 86.1816 138.232V32.1451C92.3635 26.0725 99.0856 23.4705 106.065 21.9581C118.432 19.2781 129.44 19.8599 136.176 20.7212C143.639 21.6752 148 28.1937 148 34.6081V114.526C148 123.169 140.654 129.983 132.124 129.706C125.065 129.478 115.266 129.723 106.39 131.831C99.6209 133.437 95.3159 136.598 91.974 140.186Z" fill="#606268"/>
</svg>
