<svg width="160" height="160" viewBox="0 0 160 160" fill="none" xmlns="http://www.w3.org/2000/svg">
<path d="M22.8371 33.9384L11.8021 55.9656C10.8164 57.9369 11.8663 60.2938 13.9662 60.8938L56.3707 73.0002C57.892 73.4288 59.5205 72.7853 60.3347 71.436L80.0049 38.8666L26.394 32.0313C24.9155 31.8599 23.5013 32.6096 22.8371 33.9384ZM148.208 55.9656L137.173 33.9384C136.508 32.6099 135.073 31.8385 133.594 32.0313L80.0049 38.8666L99.6537 71.4575C100.468 72.8073 102.096 73.4501 103.618 73.0216L146.022 60.9152C148.143 60.2935 149.172 57.9369 148.208 55.9656ZM102.653 80.0068C99.0323 80.0068 95.6253 78.0784 93.7826 74.9929L80.0049 52.1515L66.2486 74.9929C64.3844 78.0999 60.9775 80.0283 57.3563 80.0283C56.3921 80.0283 55.4279 79.9003 54.5065 79.6215L25.1512 71.2219V109.362C25.1512 112.512 27.2939 115.255 30.3366 116.005L76.6622 127.597C78.8478 128.133 81.1405 128.133 83.3047 127.597L129.673 116.005C132.716 115.233 134.859 112.491 134.859 109.362V71.2219L105.503 79.6C104.582 79.8788 103.618 80.0068 102.653 80.0068Z" fill="#606268"/>
</svg>
