<svg width="160" height="160" viewBox="0 0 160 160" fill="none" xmlns="http://www.w3.org/2000/svg">
<path d="M13.2632 24.0189L0.43404 49.0506C-0.711867 51.2908 0.508712 53.9692 2.95005 54.651L52.249 68.4087C54.0176 68.8957 55.9109 68.1645 56.8575 66.6311L79.7258 29.6193L17.3984 21.8517C15.6796 21.6569 14.0355 22.5089 13.2632 24.0189ZM159.018 49.0506L146.188 24.0189C145.416 22.5092 143.747 21.6326 142.028 21.8517L79.7258 29.6193L102.569 66.6555C103.516 68.1895 105.409 68.92 107.178 68.433L156.477 54.6753C158.943 53.9688 160.139 51.2908 159.018 49.0506ZM106.057 76.371C101.847 76.371 97.8859 74.1795 95.7436 70.6732L79.7258 44.7163L63.7329 70.6732C61.5657 74.204 57.6048 76.3955 53.3949 76.3955C52.2739 76.3955 51.1529 76.25 50.0817 75.9331L15.9536 66.3879V109.731C15.9536 113.31 18.4447 116.427 21.9821 117.279L75.8397 130.452C78.3806 131.062 81.0461 131.062 83.5621 130.452L137.47 117.279C141.007 116.402 143.498 113.286 143.498 109.731V66.3879L109.37 75.9087C108.299 76.2256 107.178 76.371 106.057 76.371Z" fill="#DBE3F5"/>
</svg>
