<svg width="22" height="22" viewBox="0 0 22 22" fill="none" xmlns="http://www.w3.org/2000/svg">
<path d="M13.7429 9.38462C10.8437 9.38462 8.48571 11.7662 8.48571 14.6923C8.48571 17.6185 10.8437 20 13.7429 20C16.6421 20 19 17.6185 19 14.6923C19 11.7662 16.6421 9.38462 13.7429 9.38462ZM15.5303 15.3846H13.7429C13.3643 15.3846 13.0571 15.0745 13.0571 14.6923V12.8138C13.0571 12.4317 13.3643 12.1215 13.7429 12.1215C14.1214 12.1215 14.4286 12.4317 14.4286 12.8138V14H15.5303C15.9088 14 16.216 14.3102 16.216 14.6923C16.216 15.0745 15.9088 15.3846 15.5303 15.3846ZM14.6571 2H5.51429C4.12457 2 3 3.13538 3 4.53846V16.5385C3 17.9415 4.12457 19.0769 5.51429 19.0769H8.75086C7.72686 17.9046 7.11429 16.3723 7.11429 14.6923C7.11429 11 10.0857 8 13.7429 8C15.0046 8 16.1749 8.35077 17.1714 8.97846V4.53846C17.1714 3.13538 16.0469 2 14.6571 2ZM7.34286 11.6923H6.42857C6.05371 11.6923 5.74286 11.3785 5.74286 11C5.74286 10.6215 6.05371 10.3077 6.42857 10.3077H7.34286C7.71771 10.3077 8.02857 10.6215 8.02857 11C8.02857 11.3785 7.71771 11.6923 7.34286 11.6923ZM10.0857 8.92308H6.42857C6.05371 8.92308 5.74286 8.60923 5.74286 8.23077C5.74286 7.85231 6.05371 7.53846 6.42857 7.53846H10.0857C10.4606 7.53846 10.7714 7.85231 10.7714 8.23077C10.7714 8.60923 10.4606 8.92308 10.0857 8.92308ZM13.7429 6.15385H6.42857C6.05371 6.15385 5.74286 5.84 5.74286 5.46154C5.74286 5.08308 6.05371 4.76923 6.42857 4.76923H13.7429C14.1177 4.76923 14.4286 5.08308 14.4286 5.46154C14.4286 5.84 14.1177 6.15385 13.7429 6.15385Z" fill="#666666"/>
</svg>
