<svg width="24" height="24" viewBox="0 0 24 24" fill="none" xmlns="http://www.w3.org/2000/svg">
<g id="noun-phone-64254 2">
<g id="Group">
<path id="Vector" d="M12.0129 3.75586C7.47641 3.75586 3.78137 7.45089 3.78137 11.9874C3.78137 16.5238 7.47641 20.2189 12.0129 20.2189C16.5494 20.2189 20.2444 16.5238 20.2444 11.9874C20.2444 7.45089 16.5494 3.75586 12.0129 3.75586ZM14.7567 12.2618C14.4275 12.7191 14.0251 13.1398 13.586 13.5788C13.147 14.0178 12.7263 14.4385 12.269 14.7495C10.7507 15.8287 9.26905 16.1763 8.62882 15.536L8.0434 14.9506C7.89705 14.786 8.11651 14.3287 8.53732 13.9079C8.95801 13.4872 9.43368 13.2676 9.58005 13.4139L10.1105 13.9443L10.0738 13.9077C10.4396 14.2735 11.153 14.1638 11.9213 13.7248C12.2505 13.5235 12.5798 13.2308 12.8908 12.9199C13.2018 12.6089 13.4762 12.3162 13.6773 11.987C14.1529 11.2005 14.2627 10.4687 13.8968 10.1029L13.9334 10.1395L13.403 9.6091C13.2566 9.46274 13.4761 8.98719 13.8969 8.56638C14.3176 8.14569 14.7933 7.92608 14.9396 8.07245L15.5251 8.65787C16.1836 9.28003 15.8178 10.7434 14.7568 12.2618L14.7567 12.2618Z" fill="#FF8CB9"/>
</g>
</g>
</svg>
