<svg width="22" height="22" viewBox="0 0 22 22" fill="none" xmlns="http://www.w3.org/2000/svg">
<path d="M19 3H3C1.897 3 1 3.93437 1 5.08333V17.5833C1 18.7323 1.897 19.6667 3 19.6667H19C20.103 19.6667 21 18.7323 21 17.5833V5.08333C21 3.93437 20.103 3 19 3ZM7.715 7.16667C8.866 7.16667 9.715 8.05104 9.715 9.25C9.715 10.449 8.866 11.3333 7.715 11.3333C6.564 11.3333 5.715 10.449 5.715 9.25C5.715 8.05104 6.563 7.16667 7.715 7.16667ZM11.43 15.5H4V15.0156C4 13.5854 5.676 12.1146 7.715 12.1146C9.754 12.1146 11.43 13.5854 11.43 15.0156V15.5ZM18 14.4583H14V12.375H18V14.4583ZM18 10.2917H13V8.20833H18V10.2917Z" fill="#666666"/>
</svg>
