<svg width="160" height="160" viewBox="0 0 160 160" fill="none" xmlns="http://www.w3.org/2000/svg">
<path d="M24 72C32.825 72 40 64.825 40 56C40 47.175 32.825 40 24 40C15.175 40 8 47.175 8 56C8 64.825 15.175 72 24 72ZM136 72C144.825 72 152 64.825 152 56C152 47.175 144.825 40 136 40C127.175 40 120 47.175 120 56C120 64.825 127.175 72 136 72ZM144 80H128C123.6 80 119.625 81.775 116.725 84.65C126.8 90.175 133.95 100.15 135.5 112H152C156.425 112 160 108.425 160 104V96C160 87.175 152.825 80 144 80ZM80 80C95.475 80 108 67.475 108 52C108 36.525 95.475 24 80 24C64.525 24 52 36.525 52 52C52 67.475 64.525 80 80 80ZM99.2 88H97.125C91.925 90.5 86.15 92 80 92C73.85 92 68.1 90.5 62.875 88H60.8C44.9 88 32 100.9 32 116.8V124C32 130.625 37.375 136 44 136H116C122.625 136 128 130.625 128 124V116.8C128 100.9 115.1 88 99.2 88ZM43.275 84.65C40.375 81.775 36.4 80 32 80H16C7.175 80 0 87.175 0 96V104C0 108.425 3.575 112 8 112H24.475C26.05 100.15 33.2 90.175 43.275 84.65Z" fill="#606268"/>
</svg>
