<svg width="159" height="159" viewBox="0 0 159 159" fill="none" xmlns="http://www.w3.org/2000/svg">
<path d="M23.85 71.5486C32.6198 71.5486 39.75 64.4185 39.75 55.6486C39.75 46.8788 32.6198 39.7486 23.85 39.7486C15.0802 39.7486 7.95 46.8788 7.95 55.6486C7.95 64.4185 15.0802 71.5486 23.85 71.5486ZM135.15 71.5486C143.92 71.5486 151.05 64.4185 151.05 55.6486C151.05 46.8788 143.92 39.7486 135.15 39.7486C126.38 39.7486 119.25 46.8788 119.25 55.6486C119.25 64.4185 126.38 71.5486 135.15 71.5486ZM143.1 79.4986H127.2C122.827 79.4986 118.877 81.2625 115.995 84.1196C126.007 89.61 133.113 99.5227 134.653 111.299H151.05C155.447 111.299 159 107.746 159 103.349V95.3986C159 86.6288 151.87 79.4986 143.1 79.4986ZM79.5 79.4986C94.8783 79.4986 107.325 67.0519 107.325 51.6736C107.325 36.2954 94.8783 23.8486 79.5 23.8486C64.1217 23.8486 51.675 36.2954 51.675 51.6736C51.675 67.0519 64.1217 79.4986 79.5 79.4986ZM98.58 87.4486H96.518C91.3505 89.933 85.6116 91.4236 79.5 91.4236C73.3884 91.4236 67.6744 89.933 62.482 87.4486H60.42C44.6194 87.4486 31.8 100.268 31.8 116.069V123.224C31.8 129.807 37.1414 135.149 43.725 135.149H115.275C121.859 135.149 127.2 129.807 127.2 123.224V116.069C127.2 100.268 114.381 87.4486 98.58 87.4486ZM43.0045 84.1196C40.1227 81.2625 36.1725 79.4986 31.8 79.4986H15.9C7.13016 79.4986 0 86.6288 0 95.3986V103.349C0 107.746 3.55266 111.299 7.95 111.299H24.322C25.8872 99.5227 32.9925 89.61 43.0045 84.1196Z" fill="#DBE3F5"/>
</svg>
