<svg width="161" height="161" viewBox="0 0 161 161" fill="none" xmlns="http://www.w3.org/2000/svg">
<path d="M153.579 110.01C154.233 106.463 154.233 102.84 153.579 99.2933L160.069 95.545C160.824 95.1174 161.151 94.2369 160.899 93.4067C159.214 87.973 156.321 83.0424 152.548 78.967C151.969 78.3381 151.038 78.1872 150.283 78.6149L143.793 82.3631C141.051 80.0236 137.907 78.2124 134.51 77.0049V69.5083C134.51 68.653 133.907 67.8983 133.077 67.7222C127.467 66.4644 121.756 66.5147 116.423 67.7222C115.593 67.8983 114.989 68.653 114.989 69.5083V77.0049C111.593 78.2124 108.449 80.0236 105.707 82.3631L99.2163 78.6149C98.4867 78.1872 97.5308 78.3381 96.9522 78.967C93.1788 83.0424 90.2858 87.973 88.6003 93.4067C88.3488 94.2369 88.7009 95.1174 89.4305 95.545L95.9208 99.2933C95.2667 102.84 95.2667 106.463 95.9208 110.01L89.4305 113.758C88.6758 114.186 88.3488 115.066 88.6003 115.896C90.2858 121.33 93.1788 126.236 96.9522 130.336C97.5308 130.965 98.4616 131.116 99.2163 130.688L105.707 126.94C108.449 129.28 111.593 131.091 114.989 132.298V139.795C114.989 140.65 115.593 141.405 116.423 141.581C122.033 142.839 127.743 142.788 133.077 141.581C133.907 141.405 134.51 140.65 134.51 139.795V132.298C137.907 131.091 141.051 129.28 143.793 126.94L150.283 130.688C151.013 131.116 151.969 130.965 152.548 130.336C156.321 126.261 159.214 121.33 160.899 115.896C161.151 115.066 160.799 114.186 160.069 113.758L153.579 110.01ZM124.775 116.852C118.033 116.852 112.574 111.368 112.574 104.652C112.574 97.9349 118.058 92.4508 124.775 92.4508C131.492 92.4508 136.976 97.9349 136.976 104.652C136.976 111.368 131.517 116.852 124.775 116.852ZM56.35 80.5016C74.1355 80.5016 88.55 66.087 88.55 48.3016C88.55 30.5161 74.1355 16.1016 56.35 16.1016C38.5645 16.1016 24.15 30.5161 24.15 48.3016C24.15 66.087 38.5645 80.5016 56.35 80.5016ZM106.964 137.48C106.386 137.179 105.807 136.826 105.254 136.499L103.266 137.657C101.757 138.512 100.046 138.99 98.3358 138.99C95.5938 138.99 92.9523 137.833 91.0656 135.82C86.462 130.839 82.9402 124.777 80.9528 118.311C79.5692 113.859 81.4308 109.155 85.4558 106.815L87.4431 105.658C87.418 105.004 87.418 104.35 87.4431 103.696L85.4558 102.538C81.4308 100.224 79.5692 95.4947 80.9528 91.042C81.1792 90.3125 81.5063 89.583 81.7578 88.8535C80.8019 88.778 79.8711 88.5516 78.89 88.5516H74.6889C69.1042 91.1175 62.8906 92.5766 56.35 92.5766C49.8094 92.5766 43.6209 91.1175 38.0111 88.5516H33.81C15.1441 88.5516 0 103.696 0 122.362V132.827C0 139.493 5.40859 144.902 12.075 144.902H100.625C103.166 144.902 105.53 144.097 107.468 142.763C107.166 141.807 106.964 140.826 106.964 139.795V137.48Z" fill="#DBE3F5"/>
</svg>
