<svg width="160" height="160" viewBox="0 0 160 160" fill="none" xmlns="http://www.w3.org/2000/svg">
<g clip-path="url(#clip0_253_512)">
<path fill-rule="evenodd" clip-rule="evenodd" d="M33.3335 63.334C33.3335 46.7655 46.765 33.334 63.3335 33.334C79.9022 33.334 93.3335 46.7655 93.3335 63.334C93.3335 79.9027 79.9022 93.334 63.3335 93.334C46.765 93.334 33.3335 79.9027 33.3335 63.334Z" fill="#606268"/>
<path d="M95.7835 80.4213C95.4802 80.996 95.6089 81.7127 96.1309 82.0993C100.008 84.9693 104.806 86.6667 110 86.6667C122.887 86.6667 133.334 76.22 133.334 63.3333C133.334 50.4467 122.887 40 110 40C104.806 40 100.008 41.6973 96.1309 44.5675C95.6089 44.9542 95.4802 45.6705 95.7835 46.2453C98.4762 51.3479 100 57.1627 100 63.3333C100 69.504 98.4762 75.3187 95.7835 80.4213Z" fill="#606268"/>
<path fill-rule="evenodd" clip-rule="evenodd" d="M30.9408 104.662C39.1566 101.096 49.9362 100 63.3328 100C76.7412 100 87.5285 101.098 95.7472 104.672C104.7 108.565 110.141 115.195 112.993 124.557C114.33 128.945 111.034 133.333 106.492 133.333H20.1866C15.6391 133.333 12.3362 128.939 13.677 124.543C16.5328 115.179 21.9824 108.551 30.9408 104.662Z" fill="#606268"/>
<path d="M98.7898 93.5757C96.0298 93.7471 95.8678 97.4551 98.4038 98.5577C105.353 101.58 110.586 106.028 114.338 111.706C117.418 116.366 122.2 120 127.784 120H139.655C144.37 120 147.81 115.315 146.151 110.738C146.056 110.475 145.956 110.214 145.854 109.954C143.571 104.19 139.658 99.9471 133.865 97.2424C128.426 94.7031 121.616 93.6551 113.594 93.3384L113.462 93.3331H113.331C108.606 93.3331 103.67 93.2724 98.7898 93.5757Z" fill="#606268"/>
</g>
<defs>
<clipPath id="clip0_253_512">
<rect width="160" height="160" fill="white"/>
</clipPath>
</defs>
</svg>
